Coordinates
version=1
nRows=14
nColumns=33
inDegrees=yes

Units are S.I. units (second, meters, Newtons, ...)
Angles are in degrees.

endheader
time	ground_thorax_rot_x	ground_thorax_rot_y	ground_thorax_rot_z	ground_thorax_tx	ground_thorax_ty	ground_thorax_tz	clav_prot_r	clav_elev_r	scapula_abduction_r	scapula_elevation_r	scapula_upward_rot_r	scapula_winging_r	shoulder_elv_r	plane_of_elev_r	axial_rot_r	elbow_flexion_r	pro_sup_r	wrist_flex_r	wrist_dev_r	clav_prot_l	clav_elev_l	scapula_abduction_l	scapula_elevation_l	scapula_upward_rot_l	scapula_winging_l	shoulder_elv_l	plane_of_elev_l	axial_rot_l	elbow_flexion_l	pro_sup_l	wrist_flex_l	wrist_dev_l	
8.6200	39.408327	11.399661	14.366090	-243.921173	848.492241	6.733440	12.413219	38.901841	38.112654	45.000000	-33.607023	2788.590626	-3531.569657	33.278006	51.809513	1453.903072	30.412883	18.940644	3.095847	8.051365	-45.000000	-36.147042	45.000000	-44.999998	-1339.988675	-2083.235729	21.211402	-53.910706	370.392800	-1.252480	5.527271	-19.868573	
8.6300	39.377527	11.447478	14.448854	-243.736151	848.146760	6.772999	12.428835	38.876165	38.088183	45.000000	-33.728515	2788.655839	-3531.563110	33.301437	51.637801	1453.907918	30.662455	18.977413	3.091101	8.062324	-45.000000	-36.151813	45.000000	-44.999996	-1339.977210	-2083.245698	21.240923	-53.835929	370.461220	-0.089137	5.337553	-19.841917	
8.6400	39.340618	11.517164	14.539220	-243.533413	847.801129	6.811803	12.445710	38.863590	38.040978	45.000000	-33.840994	2788.731879	-3531.551385	33.323265	51.485592	1453.903658	30.904358	19.055753	3.087628	8.070076	-45.000000	-36.169427	45.000000	-44.999992	-1339.960955	-2083.247910	21.272874	-53.768764	370.540362	1.039452	5.162743	-19.779280	
8.6500	39.317090	11.568546	14.600058	-243.292704	847.453999	6.848450	12.457109	38.853740	38.014795	45.000000	-33.896636	2788.786062	-3531.550923	33.340503	51.351945	1453.915692	31.112507	19.082545	3.079807	8.076840	-45.000000	-36.177411	45.000000	-44.999986	-1339.968584	-2083.262119	21.303091	-53.645170	370.606203	2.095236	5.004573	-19.764202	
8.6600	39.301525	11.614674	14.637895	-243.011739	847.106562	6.883391	12.457527	38.845186	37.991365	45.000000	-33.903831	2788.831079	-3531.555759	33.355027	51.232775	1453.935964	31.294911	19.084820	3.065427	8.088149	-45.000000	-36.184654	45.000000	-44.999974	-1339.989948	-2083.283825	21.337536	-53.493819	370.669359	3.079849	4.862316	-19.768255	
8.6700	39.290597	11.668539	14.663185	-242.685810	846.759369	6.916985	12.449577	38.847068	37.960513	45.000000	-33.869335	2788.875333	-3531.559770	33.366699	51.131577	1453.959682	31.456209	19.079858	3.052214	8.099075	-45.000000	-36.199310	45.000000	-44.999954	-1340.022608	-2083.307214	21.369805	-53.312850	370.731348	3.987184	4.738187	-19.782710	
8.6800	39.285305	11.724185	14.671468	-242.315149	846.413049	6.950095	12.426784	38.847478	37.924339	45.000000	-33.796383	2788.919019	-3531.564505	33.378185	51.031925	1453.985244	31.599396	19.061016	3.035139	8.118596	-45.000000	-36.219342	45.000000	-44.999918	-1340.063191	-2083.334338	21.407605	-53.119379	370.790924	4.819264	4.628212	-19.805690	
8.6900	39.280106	11.796000	14.679520	-241.901404	846.067314	6.983738	12.397180	38.858131	37.875447	45.000000	-33.705580	2788.970903	-3531.564062	33.389076	50.934752	1454.006382	31.729726	19.057270	3.027360	8.138402	-45.000000	-36.251914	45.000000	-44.999853	-1340.106697	-2083.357581	21.443307	-52.915973	370.851104	5.579881	4.532967	-19.822063	
8.7000	39.279117	11.870065	14.679363	-241.444799	845.720686	7.018706	12.357037	38.865104	37.826101	45.000000	-33.594226	2789.024824	-3531.565303	33.399894	50.822772	1454.022912	31.838438	19.047891	3.024046	8.165896	-45.000000	-36.287870	45.000000	-44.999737	-1340.154624	-2083.382439	21.484168	-52.706733	370.903025	6.269819	4.450286	-19.842116	
8.7100	39.280405	11.953304	14.681421	-240.943162	845.370414	7.055470	12.314245	38.879823	37.782288	45.000000	-33.475011	2789.079349	-3531.567584	33.406420	50.700530	1454.032443	31.916402	19.053929	3.038427	8.193065	-45.000000	-36.326558	45.000000	-44.999528	-1340.206244	-2083.405238	21.525725	-52.484349	370.948976	6.889718	4.382110	-19.858758	
8.7200	39.287365	12.034821	14.676773	-240.391730	845.012855	7.094096	12.267801	38.891599	37.751652	45.000000	-33.341480	2789.127978	-3531.578014	33.409664	50.558996	1454.036183	31.945388	19.060988	3.064741	8.225203	-45.000000	-36.358880	45.000000	-44.999158	-1340.263498	-2083.431738	21.575668	-52.254234	370.986675	7.442619	4.327177	-19.877494	
8.7300	39.302212	12.113828	14.672442	-239.783306	844.643593	7.134268	12.223549	38.911160	37.762950	45.000000	-33.203096	2789.156174	-3531.602911	33.398874	50.405324	1454.036682	31.910227	19.084202	3.113122	8.256035	-45.000000	-36.369949	45.000000	-44.998484	-1340.325309	-2083.461287	21.634691	-52.007968	371.018594	7.937327	4.283010	-19.894607	
8.7400	39.325914	12.187211	14.666646	-239.109235	844.257818	7.175396	12.184319	38.932964	37.811983	45.000000	-33.050031	2789.163865	-3531.646485	33.379014	50.240094	1454.028592	31.792542	19.112797	3.178518	8.286139	-45.000000	-36.355858	45.000000	-44.997305	-1340.394063	-2083.495543	21.705639	-51.750702	371.037614	8.382082	4.248920	-19.910786	
8.7500	39.356242	12.263101	14.665635	-238.360529	843.850657	7.216724	12.145541	38.960784	37.893854	45.000000	-32.882435	2789.154880	-3531.703425	33.345439	50.068581	1454.014313	31.579477	19.154055	3.267001	8.317275	-45.000000	-36.322609	45.000000	-44.995115	-1340.468318	-2083.532476	21.786636	-51.481864	371.049645	8.781121	4.223332	-19.925318	
